<?xml version="1.0" encoding="iso-8859-1"?>
<!-- Generator: Adobe Illustrator 19.0.0, SVG Export Plug-In . SVG Version: 6.00 Build 0)  -->
<svg version="1.1" id="Capa_1" xmlns="http://www.w3.org/2000/svg" xmlns:xlink="http://www.w3.org/1999/xlink" x="0px" y="0px"
	 viewBox="0 0 377.208 377.208" style="enable-background:new 0 0 377.208 377.208;" xml:space="preserve">
<path style="fill:#D4E1F4;" d="M188.604,111.804c-85.159,0-154.645-22.988-159.869-52.245h-0.522v261.747
	c0,30.824,71.576,55.902,160.392,55.902s160.392-25.078,160.392-55.902V59.559h-0.522
	C343.249,88.816,273.763,111.804,188.604,111.804z"/>
<path style="fill:#00BBD3;" d="M188.604,111.804c85.159,0,154.645-22.988,159.869-52.245c0.522-1.045,0.522-2.612,0.522-3.657
	C348.996,25.078,277.42,0,188.604,0S28.212,25.078,28.212,55.902c0,1.045,0,2.612,0.522,3.657
	C33.959,88.816,103.445,111.804,188.604,111.804z"/>
<g>
</g>
<g>
</g>
<g>
</g>
<g>
</g>
<g>
</g>
<g>
</g>
<g>
</g>
<g>
</g>
<g>
</g>
<g>
</g>
<g>
</g>
<g>
</g>
<g>
</g>
<g>
</g>
<g>
</g>
</svg>
