<?xml version="1.0" encoding="UTF-8" standalone="no"?>
<!-- Generator: Adobe Illustrator 19.0.0, SVG Export Plug-In . SVG Version: 6.00 Build 0)  -->

<svg
   xmlns:dc="http://purl.org/dc/elements/1.1/"
   xmlns:cc="http://creativecommons.org/ns#"
   xmlns:rdf="http://www.w3.org/1999/02/22-rdf-syntax-ns#"
   xmlns:svg="http://www.w3.org/2000/svg"
   xmlns="http://www.w3.org/2000/svg"
   xmlns:sodipodi="http://sodipodi.sourceforge.net/DTD/sodipodi-0.dtd"
   xmlns:inkscape="http://www.inkscape.org/namespaces/inkscape"
   version="1.1"
   id="Capa_1"
   x="0px"
   y="0px"
   viewBox="0 0 512 512"
   style="enable-background:new 0 0 512 512;"
   xml:space="preserve"
   sodipodi:docname="database.svg"
   inkscape:version="0.92.5 (2060ec1f9f, 2020-04-08)"><metadata
   id="metadata61"><rdf:RDF><cc:Work
       rdf:about=""><dc:format>image/svg+xml</dc:format><dc:type
         rdf:resource="http://purl.org/dc/dcmitype/StillImage" /></cc:Work></rdf:RDF></metadata><defs
   id="defs59" /><sodipodi:namedview
   pagecolor="#ffffff"
   bordercolor="#666666"
   borderopacity="1"
   objecttolerance="10"
   gridtolerance="10"
   guidetolerance="10"
   inkscape:pageopacity="0"
   inkscape:pageshadow="2"
   inkscape:window-width="1860"
   inkscape:window-height="1009"
   id="namedview57"
   showgrid="false"
   inkscape:zoom="0.4609375"
   inkscape:cx="-129.08475"
   inkscape:cy="256"
   inkscape:window-x="60"
   inkscape:window-y="34"
   inkscape:window-maximized="1"
   inkscape:current-layer="Capa_1" />
<circle
   style="fill:#68caad;fill-opacity:1"
   cx="256"
   cy="256"
   r="256"
   id="circle2" />
<path
   style="fill:#68caad;fill-opacity:1"
   d="M511.151,235.151L397.95,123.05l-284.075,74.913l66.663,66.236l-10.375-0.164l-62.698-62.698v6.454  l6.887,55.362l64.545,64.112l-9.778,0.263l-61.655-61.484l0.001,5.424l8.064,57.493l45.972,45.668l-7.114,2.948l-46.922-46.815  l-0.001,6.425l8.065,56.493l117.819,117.311C240.813,511.646,248.365,512,256,512c141.385,0,256-114.615,256-256  C512,248.98,511.706,242.029,511.151,235.151z"
   id="path4" />
<path
   style="fill:#E0E0E0;"
   d="M256,90.664c-0.08,0-0.16,0.001-0.24,0.001c-0.031,0-0.062,0-0.093,0l0,0  c-81.88,0.056-148.202,20.611-148.202,45.961v47.945c0,25.384,66.502,45.962,148.535,45.962s148.535-20.578,148.535-45.962v-47.945  C404.535,111.242,338.034,90.664,256,90.664z"
   id="path6" />
<ellipse
   style="fill:#FFFFFF;"
   cx="256"
   cy="136.63"
   rx="148.53"
   ry="45.962"
   id="ellipse8" />
<path
   style="fill:#E0E0E0;"
   d="M256,90.664c-0.111,0-0.222,0.001-0.333,0.001v91.921c0.111,0,0.222,0.001,0.333,0.001  c82.034,0,148.535-20.578,148.535-45.962C404.535,111.242,338.034,90.664,256,90.664z"
   id="path10" />
<path
   style="fill:#C0C0C0;"
   d="M256,182.588c-0.111,0-0.222-0.001-0.333-0.001v47.945c0.111,0,0.222,0.001,0.333,0.001  c82.034,0,148.535-20.578,148.535-45.962v-47.945C404.535,162.01,338.034,182.588,256,182.588z"
   id="path12" />
<path
   style="fill:#E0E0E0;"
   d="M107.465,249.283c0,25.384,66.502,45.962,148.535,45.962s148.535-20.578,148.535-45.962v-47.945  c0,25.384-66.502,45.962-148.535,45.962s-148.535-20.578-148.535-45.962V249.283z"
   id="path14" />
<path
   style="fill:#C0C0C0;"
   d="M256,247.3c-0.111,0-0.222-0.001-0.333-0.001v47.945c0.111,0,0.222,0.001,0.333,0.001  c82.034,0,148.535-20.578,148.535-45.962v-47.945C404.535,226.722,338.034,247.3,256,247.3z"
   id="path16" />
<path
   style="fill:#E0E0E0;"
   d="M107.465,313.995c0,25.384,66.502,45.962,148.535,45.962s148.535-20.578,148.535-45.962V266.05  c0,25.384-66.502,45.962-148.535,45.962s-148.535-20.578-148.535-45.962V313.995z"
   id="path18" />
<path
   style="fill:#C0C0C0;"
   d="M256,312.012c-0.111,0-0.222-0.001-0.333-0.001v47.945c0.111,0,0.222,0.001,0.333,0.001  c82.034,0,148.535-20.578,148.535-45.962V266.05C404.535,291.434,338.034,312.012,256,312.012z"
   id="path20" />
<path
   style="fill:#E0E0E0;"
   d="M107.465,378.708c0,25.384,66.502,45.962,148.535,45.962s148.535-20.578,148.535-45.962v-47.945  c0,25.384-66.502,45.962-148.535,45.962s-148.535-20.578-148.535-45.962V378.708z"
   id="path22" />
<path
   style="fill:#C0C0C0;"
   d="M256,376.724c-0.111,0-0.222-0.001-0.333-0.001v47.945c0.111,0,0.222,0.001,0.333,0.001  c82.034,0,148.535-20.578,148.535-45.962v-47.945C404.535,356.146,338.034,376.724,256,376.724z"
   id="path24" />
<g
   id="g26">
</g>
<g
   id="g28">
</g>
<g
   id="g30">
</g>
<g
   id="g32">
</g>
<g
   id="g34">
</g>
<g
   id="g36">
</g>
<g
   id="g38">
</g>
<g
   id="g40">
</g>
<g
   id="g42">
</g>
<g
   id="g44">
</g>
<g
   id="g46">
</g>
<g
   id="g48">
</g>
<g
   id="g50">
</g>
<g
   id="g52">
</g>
<g
   id="g54">
</g>
</svg>