<?xml version="1.0" encoding="UTF-8" standalone="no"?>
<!-- Generator: Adobe Illustrator 21.0.2, SVG Export Plug-In . SVG Version: 6.00 Build 0)  -->

<svg
   xmlns:dc="http://purl.org/dc/elements/1.1/"
   xmlns:cc="http://creativecommons.org/ns#"
   xmlns:rdf="http://www.w3.org/1999/02/22-rdf-syntax-ns#"
   xmlns:svg="http://www.w3.org/2000/svg"
   xmlns="http://www.w3.org/2000/svg"
   xmlns:sodipodi="http://sodipodi.sourceforge.net/DTD/sodipodi-0.dtd"
   xmlns:inkscape="http://www.inkscape.org/namespaces/inkscape"
   version="1.1"
   id="Layer_1"
   x="0px"
   y="0px"
   viewBox="0 0 40 40"
   style="enable-background:new 0 0 40 40;"
   xml:space="preserve"
   inkscape:version="0.91 r13725"
   sodipodi:docname="export.svg"><metadata
     id="metadata27"><rdf:RDF><cc:Work
         rdf:about=""><dc:format>image/svg+xml</dc:format><dc:type
           rdf:resource="http://purl.org/dc/dcmitype/StillImage" /><dc:title></dc:title></cc:Work></rdf:RDF></metadata><defs
     id="defs25" /><sodipodi:namedview
     pagecolor="#ffffff"
     bordercolor="#666666"
     borderopacity="1"
     objecttolerance="10"
     gridtolerance="10"
     guidetolerance="10"
     inkscape:pageopacity="0"
     inkscape:pageshadow="2"
     inkscape:window-width="1855"
     inkscape:window-height="1176"
     id="namedview23"
     showgrid="false"
     inkscape:zoom="5.9"
     inkscape:cx="38.243913"
     inkscape:cy="-17.23867"
     inkscape:window-x="65"
     inkscape:window-y="24"
     inkscape:window-maximized="1"
     inkscape:current-layer="Layer_1" /><polygon
     style="fill:#ffffff"
     points="3.5,2.5 21.793,2.5 30.5,11.207 30.5,37.5 3.5,37.5 "
     id="polygon3"
     transform="translate(4.4343985,-0.83894025)" /><path
     style="fill:#4788c7"
     d="m 26.020398,2.1610598 8.414,8.4140002 0,25.586 -25.9999995,0 0,-34.0000002 17.5859995,0 m 0.414,-1 -18.9999995,0 0,36.0000002 27.9999995,0 0,-27 -9,-9.0000002 0,0 z"
     id="path5"
     inkscape:connector-curvature="0" /><polygon
     style="fill:#dff0fe"
     points="21.5,2.5 21.793,2.5 30.5,11.207 30.5,11.5 21.5,11.5 "
     id="polygon7"
     transform="translate(4.4343985,-0.83894025)" /><path
     style="fill:#4788c7"
     d="m 26.434398,2.5750598 7.586,7.5860002 -7.586,0 0,-7.5860002 m 0,-1.414 -1,0 0,10.0000002 10,0 0,-1 -9,-9.0000002 0,0 z"
     id="path9"
     inkscape:connector-curvature="0" /><polygon
     style="fill:#ffffff"
     points="30,37 27,37 27.791,38 31,38 31,19 30,19 "
     id="polygon11"
     transform="translate(4.4343985,-0.83894025)" /><polygon
     style="fill:#98ccfd"
     points="38.96,30.5 32,39.199 25.04,30.5 29.5,30.5 29.5,22.5 34.5,22.5 34.5,30.5 "
     id="polygon13"
     transform="matrix(1,0,0,1.1565537,-11.086603,-9.8561898)" /><path
     style="fill:#4788c7"
     d="m 34.934398,15.16106 0,0 c 0.275,0 0.5,1.234486 0.5,2.743303 l 0,16.459815 c 0,1.508817 -0.225,2.743303 -0.5,2.743303 l 0,0 c -0.275,0 -0.5,-1.234486 -0.5,-2.743303 l 0,-16.459815 c 0,-1.508817 0.225,-2.743303 0.5,-2.743303 z"
     id="path19"
     inkscape:connector-curvature="0" /><path
     style="fill:#4788c7"
     d="m 29.301434,36.16106 5.202219,0 c 0.47687,0 0.867036,0.225 0.867036,0.5 l 0,0 c 0,0.275 -0.390166,0.5 -0.867036,0.5 l -5.202219,0 c -0.47687,0 -0.867036,-0.225 -0.867036,-0.5 l 0,0 c 0,-0.275 0.390166,-0.5 0.867036,-0.5 z"
     id="path21"
     inkscape:connector-curvature="0" /><rect
     style="opacity:0.97000002;fill:#ff8080;fill-opacity:0;stroke:#da6a00;stroke-width:4.99420166;stroke-miterlimit:4;stroke-dasharray:none;stroke-opacity:1"
     id="rect4227"
     width="14.54075"
     height="2.2289512"
     x="6.0601368"
     y="7.4089618" /><text
     xml:space="preserve"
     style="font-style:normal;font-weight:normal;font-size:9.36481571px;line-height:125%;font-family:sans-serif;letter-spacing:0px;word-spacing:0px;fill:#ffffff;fill-opacity:1;stroke:none;stroke-width:1px;stroke-linecap:butt;stroke-linejoin:miter;stroke-opacity:1"
     x="4.5473242"
     y="10.362309"
     id="text4241"
     sodipodi:linespacing="125%"
     transform="scale(0.9504564,1.0521261)"><tspan
       sodipodi:role="line"
       id="tspan4243"
       x="4.5473242"
       y="10.362309"
       style="font-size:6.24321032px;fill:#ffffff">GDML</tspan></text>
</svg>