<svg enable-background="new 0 0 24 24" height="512" viewBox="0 0 24 24" width="512" xmlns="http://www.w3.org/2000/svg"><g id="Layer_3"><g><path d="m0 8.5h7v7h-7z" fill="#90caf9"/></g><g><path d="m8.5 8.5h7v7h-7z" fill="#90caf9"/></g><g><path d="m8.5 0h7v7h-7z" fill="#90caf9"/></g><g><path d="m7 0h-4.25c-1.517 0-2.75 1.233-2.75 2.75v4.25h7z" fill="#90caf9"/></g><g><path d="m17 15.5v1.5 7h4.25c1.517 0 2.75-1.233 2.75-2.75v-12.75h-7z" fill="#42a5f5"/></g><g><path d="m21.25 0h-4.25v7h7v-4.25c0-1.517-1.233-2.75-2.75-2.75z" fill="#42a5f5"/></g><g><path d="m0 17v4.25c0 1.517 1.233 2.75 2.75 2.75h4.25v-7z" fill="#90caf9"/></g><g><path d="m8.5 17h7v7h-7z" fill="#90caf9"/></g></g><g id="Layer_2"><g><path d="m23.25 8.5h-22.5c-.414 0-.75-.336-.75-.75s.336-.75.75-.75h22.5c.414 0 .75.336.75.75s-.336.75-.75.75z"/></g><g><path d="m16.25 17h-15.5c-.414 0-.75-.336-.75-.75s.336-.75.75-.75h15.5c.414 0 .75.336.75.75s-.336.75-.75.75z"/></g><g><path d="m22.25 24h-20.5c-.965 0-1.75-.785-1.75-1.75v-20.5c0-.965.785-1.75 1.75-1.75h20.5c.965 0 1.75.785 1.75 1.75v20.5c0 .965-.785 1.75-1.75 1.75zm-20.5-22.5c-.138 0-.25.112-.25.25v20.5c0 .138.112.25.25.25h20.5c.138 0 .25-.112.25-.25v-20.5c0-.138-.112-.25-.25-.25z"/></g><g><path d="m7.75 24c-.414 0-.75-.336-.75-.75v-22.5c0-.414.336-.75.75-.75s.75.336.75.75v22.5c0 .414-.336.75-.75.75z"/></g><g><path d="m16.25 24c-.414 0-.75-.336-.75-.75v-22.5c0-.414.336-.75.75-.75s.75.336.75.75v22.5c0 .414-.336.75-.75.75z"/></g></g></svg>