<svg height="512pt" viewBox="0 0 512 512" width="512pt" xmlns="http://www.w3.org/2000/svg" xmlns:xlink="http://www.w3.org/1999/xlink"><linearGradient id="a" gradientTransform="matrix(1 0 0 -1 0 -15158)" gradientUnits="userSpaceOnUse" x1="0" x2="512" y1="-15414" y2="-15414"><stop offset="0" stop-color="#00f38d"/><stop offset="1" stop-color="#009eff"/></linearGradient><path d="m512 256c0 141.386719-114.613281 256-256 256s-256-114.613281-256-256 114.613281-256 256-256 256 114.613281 256 256zm0 0" fill="url(#a)"/><g fill="#fff"><path d="m421.167969 272.582031c1.886719-2.464843 5.367187-7.59375 5.757812-8.167969l5.703125-8.414062-5.703125-8.414062c-.390625-.578126-3.871093-5.707032-5.761719-8.167969-8.734374-11.398438-29.195312-38.085938-57.429687-61.457031-35.460937-29.347657-71.707031-44.230469-107.734375-44.230469-25.917969 0-52.089844 7.769531-77.953125 23.105469l-76.441406-76.441407-21.210938 21.210938 330 330 21.210938-21.210938-72.570313-72.570312c30.789063-24.363281 53.035156-53.378907 62.132813-65.242188zm-165.167969-108.847656c45.601562 0 92.722656 31.042969 140.074219 92.269531-10.046875 13.082032-30.546875 39.167969-58.410157 60.449219l-16.050781-16.054687c8.839844-13.007813 13.609375-28.347657 13.609375-44.398438 0-43.683594-35.539062-79.222656-79.222656-79.222656-16.015625 0-31.375 4.777344-44.394531 13.617187l-11.519531-11.523437c18.894531-10.039063 37.640624-15.136719 55.914062-15.136719zm0 65.621094c-1.695312 0-3.355469.164062-4.964844.46875l-17.589844-17.59375c6.898438-3.5625 14.597657-5.453125 22.554688-5.453125 27.140625 0 49.222656 22.082031 49.222656 49.222656 0 7.96875-1.894531 15.660156-5.457031 22.554688l-17.585937-17.589844c.300781-1.609375.46875-3.269532.46875-4.964844-.003907-14.714844-11.933594-26.644531-26.648438-26.644531zm0 0"/><path d="m253.265625 349.117188c-45.601563 0-92.722656-31.042969-140.074219-92.269532 7.386719-9.609375 21.34375-27.417968 39.910156-44.746094l-20.46875-21.933593c-21.527343 20.089843-37.066406 40.359375-44.535156 50.101562-1.886718 2.464844-5.367187 7.59375-5.757812 8.167969l-5.699219 8.414062 5.699219 8.414063c.390625.578125 3.871094 5.707031 5.761718 8.167969 8.734376 11.398437 29.195313 38.085937 57.429688 61.457031 35.460938 29.347656 71.707031 44.230469 107.734375 44.230469 16.382813 0 33.035156-3.136719 49.496094-9.320313l-10.554688-28.085937c-13.074219 4.914062-26.175781 7.402344-38.941406 7.402344zm0 0"/><path d="m177.128906 248.472656c-.234375 2.488282-.351562 5.023438-.351562 7.527344 0 43.683594 35.539062 79.222656 79.222656 79.222656 2.695312 0 5.414062-.136718 8.082031-.40625l-3.03125-29.847656c-1.664062.167969-3.363281.253906-5.050781.253906-27.140625 0-49.222656-22.082031-49.222656-49.222656 0-1.570312.074218-3.152344.21875-4.710938zm0 0"/></g></svg>