<?xml version="1.0" encoding="UTF-8" standalone="no"?>
<!-- Generator: Adobe Illustrator 19.0.0, SVG Export Plug-In . SVG Version: 6.00 Build 0)  -->

<svg
   xmlns:dc="http://purl.org/dc/elements/1.1/"
   xmlns:cc="http://creativecommons.org/ns#"
   xmlns:rdf="http://www.w3.org/1999/02/22-rdf-syntax-ns#"
   xmlns:svg="http://www.w3.org/2000/svg"
   xmlns="http://www.w3.org/2000/svg"
   xmlns:sodipodi="http://sodipodi.sourceforge.net/DTD/sodipodi-0.dtd"
   xmlns:inkscape="http://www.inkscape.org/namespaces/inkscape"
   version="1.1"
   id="Capa_1"
   x="0px"
   y="0px"
   viewBox="0 0 512 512"
   style="enable-background:new 0 0 512 512;"
   xml:space="preserve"
   sodipodi:docname="measure.svg"
   inkscape:version="0.92.5 (2060ec1f9f, 2020-04-08)"><metadata
   id="metadata79"><rdf:RDF><cc:Work
       rdf:about=""><dc:format>image/svg+xml</dc:format><dc:type
         rdf:resource="http://purl.org/dc/dcmitype/StillImage" /></cc:Work></rdf:RDF></metadata><defs
   id="defs77" /><sodipodi:namedview
   pagecolor="#ffffff"
   bordercolor="#666666"
   borderopacity="1"
   objecttolerance="10"
   gridtolerance="10"
   guidetolerance="10"
   inkscape:pageopacity="0"
   inkscape:pageshadow="2"
   inkscape:window-width="1860"
   inkscape:window-height="1009"
   id="namedview75"
   showgrid="false"
   inkscape:zoom="0.4609375"
   inkscape:cx="256"
   inkscape:cy="256"
   inkscape:window-x="60"
   inkscape:window-y="34"
   inkscape:window-maximized="1"
   inkscape:current-layer="Capa_1" />
<path
   style="fill:#FEDB41;"
   d="M497,392c8.401,0,15,6.599,15,15v90c0,8.399-6.599,15-15,15H13.801c-5.18-0.518-8.599-3.09-9.3-4.501  C3.587,507.499,0,502.561,0,497.3c0-0.3,0-0.3,0-0.3V15C0,6.599,6.599,0,15,0h90c8.401,0,15,6.599,15,15v46l-15.601,13.799L120,91  v30l-15.601,16.199L120,151v30l-16.8,15.599L120,211v30l-18.6,12.599L120,271v30l-21.301,11.999L120,331v31l-30,19.499L120,392H497z  "
   id="path2" />
<path
   style="fill:#FCBF29;"
   d="M512,407v90c0,8.399-6.599,15-15,15H13.801c-5.18-0.518-8.599-3.09-9.3-4.501L120,392h377  C505.401,392,512,398.599,512,407z"
   id="path4" />
<g
   id="g18">
	<path
   style="fill:#FE9923;"
   d="M120,91H75c-8.291,0-15-6.709-15-15s6.709-15,15-15h45V91z"
   id="path6" />
	<path
   style="fill:#FE9923;"
   d="M120,151H75c-8.291,0-15-6.709-15-15s6.709-15,15-15h45V151z"
   id="path8" />
	<path
   style="fill:#FE9923;"
   d="M120,211H75c-8.291,0-15-6.709-15-15s6.709-15,15-15h45V211z"
   id="path10" />
	<path
   style="fill:#FE9923;"
   d="M120,271H75c-8.291,0-15-6.709-15-15s6.709-15,15-15h45V271z"
   id="path12" />
	<path
   style="fill:#FE9923;"
   d="M120,331H75c-8.291,0-15-6.709-15-15s6.709-15,15-15h45V331z"
   id="path14" />
	<path
   style="fill:#FE9923;"
   d="M120,392H75c-8.291,0-15-6.709-15-15s6.709-15,15-15h45V392z"
   id="path16" />
</g>
<g
   id="g32">
	<path
   style="fill:#E5741A;"
   d="M436,452c-8.291,0-15-6.709-15-15v-45h30v45C451,445.291,444.291,452,436,452z"
   id="path20" />
	<path
   style="fill:#E5741A;"
   d="M376,452c-8.291,0-15-6.709-15-15v-45h30v45C391,445.291,384.291,452,376,452z"
   id="path22" />
	<path
   style="fill:#E5741A;"
   d="M316,452c-8.291,0-15-6.709-15-15v-45h30v45C331,445.291,324.291,452,316,452z"
   id="path24" />
	<path
   style="fill:#E5741A;"
   d="M256,452c-8.291,0-15-6.709-15-15v-45h30v45C271,445.291,264.291,452,256,452z"
   id="path26" />
	<path
   style="fill:#E5741A;"
   d="M196,452c-8.291,0-15-6.709-15-15v-45h30v45C211,445.291,204.291,452,196,452z"
   id="path28" />
	<path
   style="fill:#E5741A;"
   d="M135,452c-8.291,0-15-6.709-15-15v-45h30v45C150,445.291,143.291,452,135,452z"
   id="path30" />
</g>
<path
   style="fill:#4DBAEE;"
   d="M478.9,72.7l-11.7,35.698l-150.599,110.7L316,218.8L171.099,112.899L152.8,72.7  c1.8-3.602,5.099-6.601,7.5-7.5l150-63.001C312.1,1.599,314.2,1,316,1s3.9,0.599,5.7,1.199l150,63.001  c0.601,0,0.601,0.599,0.899,0.599C474.699,67,476.201,67,478.9,72.7z"
   id="path34" />
<g
   id="g40">
	<path
   style="fill:#1BA9EF;"
   d="M478.9,72.7l-11.7,35.698l-150.599,110.7L316,218.8V1c1.8,0,3.9,0.599,5.7,1.199l150,63.001   c0.601,0,0.601,0.599,0.899,0.599C474.699,67,476.201,67,478.9,72.7z"
   id="path36" />
	<path
   style="fill:#1BA9EF;"
   d="M481,78.699V271c0,5.7-3.3,10.8-8.401,13.5l-150,75c-2.098,0.899-4.199,1.5-6.599,1.5   s-4.501-0.601-6.599-1.5l-150-75C154.3,281.8,151,276.7,151,271V78.999c0,0,0,0,0-0.3c0-1.8,0.901-3.9,1.8-5.999L316,151   l162.9-78.3C480.399,76,481,78.399,481,78.699z"
   id="path38" />
</g>
<path
   style="fill:#16b4fc;fill-opacity:1"
   d="M481,78.699V271c0,5.7-3.3,10.8-8.401,13.5l-150,75c-2.098,0.899-4.199,1.5-6.599,1.5V151l162.9-78.3  C480.399,76,481,78.399,481,78.699z"
   id="path42" />
<g
   id="g44">
</g>
<g
   id="g46">
</g>
<g
   id="g48">
</g>
<g
   id="g50">
</g>
<g
   id="g52">
</g>
<g
   id="g54">
</g>
<g
   id="g56">
</g>
<g
   id="g58">
</g>
<g
   id="g60">
</g>
<g
   id="g62">
</g>
<g
   id="g64">
</g>
<g
   id="g66">
</g>
<g
   id="g68">
</g>
<g
   id="g70">
</g>
<g
   id="g72">
</g>
</svg>