<?xml version="1.0" encoding="UTF-8" standalone="no"?>
<svg
   version="1.1"
   id="Layer_1"
   x="0px"
   y="0px"
   viewBox="0 0 122.88 110.52"
   style="enable-background:new 0 0 122.88 110.52"
   xml:space="preserve"
   sodipodi:docname="steel-icon.svg"
   inkscape:version="1.2.1 (2ed6d7ae0b, 2022-08-22, custom)"
   xmlns:inkscape="http://www.inkscape.org/namespaces/inkscape"
   xmlns:sodipodi="http://sodipodi.sourceforge.net/DTD/sodipodi-0.dtd"
   xmlns="http://www.w3.org/2000/svg"
   xmlns:svg="http://www.w3.org/2000/svg"><defs
     id="defs32" /><sodipodi:namedview
     id="namedview30"
     pagecolor="#ffffff"
     bordercolor="#cccccc"
     borderopacity="1"
     inkscape:showpageshadow="0"
     inkscape:pageopacity="1"
     inkscape:pagecheckerboard="0"
     inkscape:deskcolor="#d1d1d1"
     showgrid="false"
     inkscape:zoom="5.6731813"
     inkscape:cx="29.084211"
     inkscape:cy="55.348134"
     inkscape:window-width="1524"
     inkscape:window-height="617"
     inkscape:window-x="64"
     inkscape:window-y="99"
     inkscape:window-maximized="0"
     inkscape:current-layer="Layer_1" /><g
     id="g27"
     style="fill:#008000;fill-opacity:1"><path
       d="M0,53.76V43.54c0-1.02,0.65-1.9,1.56-2.23L87.2,0.34C87.55,0.12,87.97,0,88.41,0h28.83v0l2.34,2.77l2.07,3.28l-8.84,11.14 l6.15,2.22l0.18-0.37l3.73,4.41l-39.94,84.37v0.32c0,1.31-1.06,2.38-2.38,2.38H2.38c-1.31,0-2.38-1.06-2.38-2.38V97.87 c0-0.73,0.33-1.38,0.85-1.82l31.36-30.62v-3.2l-30.3-6.15C0.79,55.86,0.01,54.87,0,53.76L0,53.76L0,53.76z M117.53,22.35 L117.53,22.35l-7.09-2.16L82.91,54.88c-0.18,0.99-0.97,1.77-1.96,1.93l-4.74,0.85L52.07,90.37l28.91,5.16 c0.22,0.04,0.43,0.11,0.63,0.2L117.53,22.35L117.53,22.35z M9.57,94.16l22.64-4.1v-18L9.57,94.16L9.57,94.16z M12.83,41.16H79.5 l32.45-36.41H88.93L12.83,41.16L12.83,41.16z M69.41,58.87l-19.14,3.42v22.53L69.41,58.87L69.41,58.87z M4.76,45.92v5.91 l30.09,6.11c1.19,0.13,2.12,1.14,2.12,2.36v31.74h-0.01c0,1.13-0.8,2.13-1.95,2.33L4.76,99.85v5.92h73.43v-5.9l-30.67-5.48 c-1.13-0.18-2-1.16-2-2.35V60.31c-0.01-1.14,0.8-2.15,1.96-2.36l30.72-5.49v-6.55H4.76L4.76,45.92z"
       id="path25"
       style="fill:#008000;fill-opacity:1" /></g></svg>
