<?xml version="1.0" encoding="UTF-8" standalone="no"?>
<svg
   xmlns:dc="http://purl.org/dc/elements/1.1/"
   xmlns:cc="http://creativecommons.org/ns#"
   xmlns:rdf="http://www.w3.org/1999/02/22-rdf-syntax-ns#"
   xmlns:svg="http://www.w3.org/2000/svg"
   xmlns="http://www.w3.org/2000/svg"
   xmlns:sodipodi="http://sodipodi.sourceforge.net/DTD/sodipodi-0.dtd"
   xmlns:inkscape="http://www.inkscape.org/namespaces/inkscape"
   enable-background="new 0 0 110 110"
   height="512"
   viewBox="0 0 110 110"
   width="512"
   version="1.1"
   id="svg30"
   sodipodi:docname="material.svg"
   inkscape:version="0.92.5 (2060ec1f9f, 2020-04-08)">
  <metadata
     id="metadata36">
    <rdf:RDF>
      <cc:Work
         rdf:about="">
        <dc:format>image/svg+xml</dc:format>
        <dc:type
           rdf:resource="http://purl.org/dc/dcmitype/StillImage" />
      </cc:Work>
    </rdf:RDF>
  </metadata>
  <defs
     id="defs34" />
  <sodipodi:namedview
     pagecolor="#ffffff"
     bordercolor="#666666"
     borderopacity="1"
     objecttolerance="10"
     gridtolerance="10"
     guidetolerance="10"
     inkscape:pageopacity="0"
     inkscape:pageshadow="2"
     inkscape:window-width="1362"
     inkscape:window-height="906"
     id="namedview32"
     showgrid="false"
     inkscape:zoom="0.4609375"
     inkscape:cx="256"
     inkscape:cy="256"
     inkscape:window-x="60"
     inkscape:window-y="34"
     inkscape:window-maximized="0"
     inkscape:current-layer="svg30" />
  <path
     d="m 45.093035,9.7521578 c -11.705176,0 -21.194206,9.3620972 -21.194206,20.9104802 0,11.548722 9.48903,20.91065 21.194206,20.91065 11.705506,0 21.194542,-9.361928 21.194542,-20.91065 0,-11.548383 -9.489036,-20.9104802 -21.194542,-20.9104802 z"
     id="path2"
     inkscape:connector-curvature="0"
     style="fill:#bdcc4b;stroke-width:1.41753292" />
  <path
     d="m 64.375074,39.331815 c -3.33569,7.223992 -10.713352,12.235859 -19.28119,12.235859 -11.709901,0 -21.191505,-9.354429 -21.191505,-20.907479 0,-5.776529 2.367025,-10.993273 6.201161,-14.776051 -1.218061,2.635708 -1.896285,5.571815 -1.896285,8.658117 0,11.539387 9.481431,20.907487 21.191499,20.907487 5.854953,0 11.142354,-2.348818 14.97632,-6.117933 z"
     id="path4"
     inkscape:connector-curvature="0"
     style="fill:#acb301;stroke-width:1.41753292" />
  <ellipse
     cx="44.796192"
     cy="70.805038"
     rx="40.333111"
     ry="39.849705"
     transform="matrix(0.97386648,-0.22712131,0.23299738,0.97247736,0,0)"
     id="ellipse6"
     style="fill:#ef3e3e;stroke-width:1.41728282" />
  <path
     d="m 67.600261,87.374237 c -22.284865,0 -40.36185,-17.835022 -40.36185,-39.821389 0,-5.722017 1.217897,-11.15714 3.43268,-16.073321 -6.782568,7.114801 -10.921177,16.701452 -10.921177,27.244125 0,21.999881 18.077153,39.821216 40.376047,39.821216 16.51288,0 30.700477,-9.777685 36.94303,-23.775234 -7.363808,7.756597 -17.841781,12.604603 -29.46873,12.604603 z"
     id="path8"
     inkscape:connector-curvature="0"
     style="fill:#e33636;stroke-width:1.41753292" />
  <path
     d="M 70.231062,22.879121 C 60.162121,34.926545 81.500773,55.133154 92.888456,43.001538 98.315502,37.219939 98.457309,28.076546 92.979404,22.341826 86.645817,15.711319 75.951617,16.034447 70.231062,22.879121 Z"
     id="path10"
     inkscape:connector-curvature="0"
     style="fill:#e6e9ef;stroke-width:1.41753292" />
  <path
     d="m 95.864616,38.389458 c -0.692079,1.666009 -1.688632,3.236664 -2.9758,4.615952 C 81.497245,55.131913 60.167358,34.920906 70.23019,22.876253 c 0.249229,-0.300562 0.498283,-0.573786 0.761187,-0.846843 -4.16632,11.976472 14.339998,27.599033 24.679606,16.578587 0.06927,-0.06818 0.138376,-0.136522 0.193633,-0.218539 z"
     id="path12"
     inkscape:connector-curvature="0"
     style="fill:#d9dde6;stroke-width:1.41753292" />
  <path
     d="m 62.976517,91.02212 c 4.978663,10.45205 17.602547,14.94309 28.196184,10.03126 C 101.76666,96.141399 106.3187,83.686596 101.34003,73.234546 92.59204,54.869302 54.228528,72.656871 62.976517,91.02212 Z"
     id="path14"
     inkscape:connector-curvature="0"
     style="fill:#00c1fb;stroke-width:1.41753292" />
  <path
     d="m 101.73359,90.105463 c -1.937852,4.656632 -5.578186,8.644281 -10.561118,10.952267 -10.588824,4.90234 -23.212317,0.42325 -28.195237,-10.037404 -2.477692,-5.216744 -1.162647,-10.37865 2.186904,-14.694034 -1.231753,3.20932 -1.287173,6.691546 0.387605,10.201101 4.969072,10.446992 17.606414,14.939917 28.195238,10.037401 3.280439,-1.529641 5.979474,-3.769109 7.986608,-6.459331 z"
     id="path16"
     inkscape:connector-curvature="0"
     style="fill:#00abee;stroke-width:1.41753292" />
  <path
     d="M 25.216373,51.573309 C 12.34281,51.559656 5.2455043,59.497507 5.2455043,71.045889 c 0,11.548716 9.5483327,22.071591 21.1942057,20.910655 27.749148,-2.766224 14.468576,-40.36659 -1.223337,-40.383235 z"
     id="path18"
     inkscape:connector-curvature="0"
     style="fill:#fdc443;stroke-width:1.41753292" />
  <path
     d="M 41.176787,82.485227 C 39.114235,87.401575 34.505228,91.157009 26.435491,91.962516 14.794867,93.123419 5.2439911,82.594584 5.2439911,71.041367 c 0,-5.31227 1.5088517,-9.859709 4.3878349,-13.219232 -1.2180625,2.67672 -1.840867,5.77669 -1.840867,9.204233 0,11.553217 9.550537,22.06855 21.191499,20.907647 5.674837,-0.559778 9.633674,-2.580867 12.194329,-5.448788 z"
     id="path20"
     inkscape:connector-curvature="0"
     style="fill:#f9b623;stroke-width:1.41753292" />
  <g
     id="g28"
     transform="matrix(1.427123,0,0,1.4080072,-24.190915,-21.042087)"
     style="fill:#ffffff">
    <path
       d="m 30.798561,55.69891 c -2.895351,0 -5.242533,2.347183 -5.242533,5.242534 0,2.89547 2.347182,5.242653 5.242533,5.242653 2.89547,0 5.242649,-2.347183 5.242649,-5.242653 0,-2.895351 -2.347179,-5.242534 -5.242649,-5.242534 z"
       id="path22"
       inkscape:connector-curvature="0"
       style="opacity:0.25" />
    <path
       d="m 73.766746,28.867653 c -1.552665,0 -2.811363,1.258703 -2.811363,2.811367 0,1.55273 1.258698,2.811432 2.811363,2.811432 1.552727,0 2.811432,-1.258701 2.811432,-2.811432 0,-1.552664 -1.258705,-2.811367 -2.811432,-2.811367 z"
       id="path24"
       inkscape:connector-curvature="0"
       style="opacity:0.25" />
    <path
       d="m 80.070923,63.372696 c -2.438179,0 -4.414742,1.976562 -4.414742,4.414741 0,2.438279 1.976563,4.414841 4.414742,4.414841 2.438278,0 4.414848,-1.976562 4.414848,-4.414841 0,-2.438179 -1.97657,-4.414741 -4.414848,-4.414741 z"
       id="path26"
       inkscape:connector-curvature="0"
       style="opacity:0.25" />
  </g>
</svg>
