<svg height="512pt" viewBox="0 0 512 512.00134" width="512pt" xmlns="http://www.w3.org/2000/svg"><path d="m179.117188 311.671875 21.210937 21.210937-40.519531 40.519532-21.210938-21.210938zm0 0" fill="#a8d3d8"/><path d="m200.328125 332.886719-40.515625 40.515625-10.605469-10.601563 40.515625-40.519531zm0 0" fill="#8ebac5"/><path d="m63.632812 512-63.632812-63.632812 127.992188-127.992188 63.632812 63.632812zm0 0" fill="#3e5959"/><path d="m191.628906 384.011719-127.992187 127.988281-31.816407-31.816406 127.992188-127.988282zm0 0" fill="#293939"/><path d="m317 390c-107.519531 0-195-87.480469-195-195s87.480469-195 195-195 195 87.480469 195 195-87.480469 195-195 195zm0 0" fill="#3e5959"/><path d="m317 390c107.519531 0 195-87.480469 195-195 0-53.761719-21.871094-102.511719-57.179688-137.820312l-275.640624 275.640624c35.3125 35.308594 84.0625 57.179688 137.820312 57.179688zm0 0" fill="#384949"/><path d="m317 30c-90.980469 0-165 74.019531-165 165s74.019531 165 165 165 165-74.019531 165-165-74.019531-165-165-165zm0 0" fill="#deecf1"/><path d="m317 360c90.980469 0 165-74.019531 165-165 0-45.492188-18.503906-86.742188-48.382812-116.617188l-233.234376 233.234376c29.875 29.878906 71.125 48.382812 116.617188 48.382812zm0 0" fill="#c6e2e7"/><path d="m391.101562 120.898438c-18.898437-19.199219-45.300781-30.898438-74.101562-30.898438-57.898438 0-105 47.101562-105 105 0 28.800781 11.699219 55.199219 30.902344 74.097656 18.898437 19.203125 45.296875 30.902344 74.097656 30.902344 57.902344 0 105-47.101562 105-105 0-28.800781-11.699219-55.199219-30.898438-74.101562zm-74.101562 149.101562c-20.699219 0-39.597656-8.402344-53.101562-21.902344-13.496094-13.496094-21.898438-32.398437-21.898438-53.097656 0-41.398438 33.601562-75 75-75 20.699219 0 39.601562 8.398438 53.101562 21.898438s21.898438 32.402343 21.898438 53.101562c0 41.398438-33.597656 75-75 75zm0 0" fill="#3e5959"/><path d="m302 60h30v90h-30zm0 0" fill="#3e5959"/><path d="m302 240h30v90h-30zm0 0" fill="#384949"/><path d="m182 180h90v30h-90zm0 0" fill="#3e5959"/><path d="m362 180h90v30h-90zm0 0" fill="#384949"/><path d="m302 180h30v30h-30zm0 0" fill="#ff7816"/><path d="m422 195c0 57.898438-47.097656 105-105 105-28.800781 0-55.199219-11.699219-74.097656-30.902344l21-21c13.5 13.5 32.398437 21.902344 53.097656 21.902344 41.402344 0 75-33.601562 75-75 0-20.699219-8.398438-39.601562-21.898438-53.101562l21-21c19.199219 18.902343 30.898438 45.300781 30.898438 74.101562zm0 0" fill="#384949"/><path d="m332 180v30h-30zm0 0" fill="#ff4b00"/></svg>