<?xml version="1.0" encoding="iso-8859-1"?>
<!-- Generator: Adobe Illustrator 19.0.0, SVG Export Plug-In . SVG Version: 6.00 Build 0)  -->
<svg version="1.1" id="Layer_1" xmlns="http://www.w3.org/2000/svg" xmlns:xlink="http://www.w3.org/1999/xlink" x="0px" y="0px"
	 viewBox="0 0 512 512" style="enable-background:new 0 0 512 512;" xml:space="preserve">
<path style="fill:#00D7DF;" d="M512,255.983C512,115.184,397.569,0,256.032,0c-0.011,0-0.021,0-0.032,0c-0.006,0-0.012,0-0.018,0
	C115.198,0,0,114.419,0,255.968c0,0.011,0,0.021,0,0.032c0,0.006,0,0.012,0,0.018C0,396.797,114.414,512,255.968,512
	c0.011,0,0.021,0,0.032,0c0.006,0,0.012,0,0.018,0C396.811,512,512,397.571,512,256.031c0-0.01,0-0.021,0-0.031
	C512,255.994,512,255.989,512,255.983z"/>
<path style="fill:#00B6BD;" d="M256.018,512C396.811,512,512,397.571,512,256.031c0-0.01,0-0.021,0-0.031c0-0.006,0-0.011,0-0.017
	C512,115.184,397.569,0,256.032,0c-0.011,0-0.021,0-0.032,0v512C256.006,512,256.012,512,256.018,512z"/>
<path style="fill:#00F6FF;" d="M512,255.949c0-77.833-122.644-133.504-256-133.514C129.79,122.441,0,174.854,0,255.981
	c0,0.052,0,0.023,0,0.071c0,92.812,157.98,133.505,256,133.513c127.117-0.007,256-52.853,256-133.547
	C512,255.973,512,255.989,512,255.949z"/>
<path style="fill:#00D7DF;" d="M256,122.435v267.13c127.117-0.007,256-52.853,256-133.547c0-0.006,0-0.011,0-0.018
	c0-0.006,0-0.011,0-0.017c0-0.023-0.001-0.048-0.001-0.071C511.96,178.099,389.335,122.445,256,122.435z"/>
<g>
</g>
<g>
</g>
<g>
</g>
<g>
</g>
<g>
</g>
<g>
</g>
<g>
</g>
<g>
</g>
<g>
</g>
<g>
</g>
<g>
</g>
<g>
</g>
<g>
</g>
<g>
</g>
<g>
</g>
</svg>
