<?xml version="1.0" encoding="UTF-8" standalone="no"?>
<!-- Generator: Adobe Illustrator 19.0.0, SVG Export Plug-In . SVG Version: 6.00 Build 0)  -->

<svg
   xmlns:dc="http://purl.org/dc/elements/1.1/"
   xmlns:cc="http://creativecommons.org/ns#"
   xmlns:rdf="http://www.w3.org/1999/02/22-rdf-syntax-ns#"
   xmlns:svg="http://www.w3.org/2000/svg"
   xmlns="http://www.w3.org/2000/svg"
   xmlns:sodipodi="http://sodipodi.sourceforge.net/DTD/sodipodi-0.dtd"
   xmlns:inkscape="http://www.inkscape.org/namespaces/inkscape"
   version="1.1"
   id="Capa_1"
   x="0px"
   y="0px"
   viewBox="0 0 512 512"
   style="enable-background:new 0 0 512 512;"
   xml:space="preserve"
   sodipodi:docname="material.svg"
   inkscape:version="0.92.3 (2405546, 2018-03-11)"><metadata
   id="metadata67"><rdf:RDF><cc:Work
       rdf:about=""><dc:format>image/svg+xml</dc:format><dc:type
         rdf:resource="http://purl.org/dc/dcmitype/StillImage" /><dc:title></dc:title></cc:Work></rdf:RDF></metadata><defs
   id="defs65" /><sodipodi:namedview
   pagecolor="#ffffff"
   bordercolor="#666666"
   borderopacity="1"
   objecttolerance="10"
   gridtolerance="10"
   guidetolerance="10"
   inkscape:pageopacity="0"
   inkscape:pageshadow="2"
   inkscape:window-width="1855"
   inkscape:window-height="1176"
   id="namedview63"
   showgrid="false"
   inkscape:zoom="0.4609375"
   inkscape:cx="-412.20339"
   inkscape:cy="256"
   inkscape:window-x="65"
   inkscape:window-y="24"
   inkscape:window-maximized="1"
   inkscape:current-layer="Capa_1" />
<g
   id="g6">
	<g
   id="g4">
		<path
   d="M503.467,213.333H473.6c-9.822,0-18.526-6.263-21.163-15.241c-4.07-13.824-9.634-27.264-16.538-39.927    c-4.514-8.277-2.816-18.901,4.113-25.839l21.137-21.137c3.337-3.337,3.337-8.73,0-12.066L412.877,50.85    c-3.337-3.337-8.73-3.337-12.066,0l-21.137,21.137c-6.946,6.929-17.562,8.61-25.839,4.113    c-12.672-6.912-26.104-12.467-39.927-16.538c-8.977-2.637-15.241-11.341-15.241-21.163V8.533c0-4.71-3.823-8.533-8.533-8.533    h-68.267c-4.71,0-8.533,3.823-8.533,8.533V38.4c0,9.822-6.263,18.526-15.241,21.163c-13.815,4.07-27.255,9.626-39.927,16.538    c-8.269,4.514-18.893,2.816-25.839-4.113L111.189,50.85c-3.337-3.337-8.73-3.337-12.066,0L50.85,99.123    c-3.337,3.337-3.337,8.73,0,12.066l21.137,21.137c6.929,6.938,8.619,17.562,4.113,25.839    c-6.912,12.663-12.467,26.095-16.538,39.927c-2.637,8.977-11.341,15.241-21.163,15.241H8.533c-4.71,0-8.533,3.823-8.533,8.533    v68.267c0,4.71,3.823,8.533,8.533,8.533H38.4c9.822,0,18.526,6.263,21.163,15.24c4.07,13.815,9.626,27.255,16.538,39.927    c4.514,8.277,2.816,18.901-4.113,25.839L50.85,400.811c-3.337,3.337-3.337,8.73,0,12.066l48.273,48.273    c3.337,3.336,8.73,3.336,12.066,0l21.137-21.137c6.938-6.938,17.562-8.619,25.839-4.113c12.672,6.912,26.103,12.467,39.927,16.538    c8.977,2.637,15.241,11.341,15.241,21.163v29.867c0,4.71,3.823,8.533,8.533,8.533h68.267c4.71,0,8.533-3.823,8.533-8.533V473.6    c0-9.822,6.263-18.526,15.24-21.163c13.815-4.07,27.255-9.626,39.927-16.538c8.277-4.497,18.901-2.825,25.839,4.113l21.137,21.137    c3.337,3.337,8.73,3.337,12.066,0l48.273-48.273c3.336-3.337,3.336-8.73,0-12.066l-21.137-21.137    c-6.929-6.938-8.619-17.562-4.113-25.839c6.912-12.672,12.467-26.104,16.538-39.927c2.637-8.977,11.341-15.241,21.163-15.241    h29.867c4.71,0,8.533-3.823,8.533-8.533v-68.267C512,217.156,508.177,213.333,503.467,213.333z M494.933,281.6H473.6    c-17.34,0-32.777,11.307-37.538,27.494c-3.721,12.663-8.815,24.969-15.138,36.582c-8.107,14.874-5.222,33.818,7.031,46.071    l15.104,15.104l-36.207,36.207l-15.104-15.104c-12.254-12.245-31.198-15.138-46.071-7.031    c-11.614,6.323-23.919,11.418-36.582,15.138C292.907,440.823,281.6,456.26,281.6,473.6v21.333h-51.2V473.6    c0-17.34-11.307-32.777-27.494-37.538c-12.664-3.721-24.969-8.815-36.582-15.138c-14.874-8.107-33.818-5.222-46.071,7.031    l-15.104,15.104l-36.207-36.207l15.104-15.104c12.245-12.254,15.138-31.198,7.031-46.071    c-6.323-11.614-11.418-23.919-15.138-36.582C71.177,292.907,55.74,281.6,38.4,281.6H17.067v-51.2H38.4    c17.34,0,32.776-11.307,37.547-27.494c3.721-12.672,8.815-24.977,15.138-36.582c8.107-14.874,5.222-33.818-7.031-46.071    l-15.104-15.104l36.198-36.207l15.104,15.104c12.254,12.245,31.198,15.138,46.071,7.031c11.614-6.323,23.919-11.418,36.582-15.138    C219.093,71.177,230.4,55.74,230.4,38.4V17.067h51.2V38.4c0,17.34,11.307,32.776,27.494,37.547    c12.663,3.721,24.969,8.815,36.582,15.138c14.865,8.107,33.818,5.222,46.071-7.031l15.104-15.104l36.207,36.198l-15.104,15.104    c-12.245,12.254-15.138,31.198-7.031,46.071c6.315,11.605,11.409,23.91,15.138,36.582c4.762,16.188,20.198,27.494,37.538,27.494    h21.333V281.6z"
   id="path2" />
	</g>
</g>
<g
   id="g12">
	<g
   id="g10">
		<path
   d="M256,119.467c-75.281,0-136.533,61.252-136.533,136.533S180.719,392.533,256,392.533S392.533,331.281,392.533,256    S331.281,119.467,256,119.467z M256,375.467c-65.877,0-119.467-53.589-119.467-119.467S190.123,136.533,256,136.533    S375.467,190.123,375.467,256S321.877,375.467,256,375.467z"
   id="path8" />
	</g>
</g>



<g
   id="g32">
</g>
<g
   id="g34">
</g>
<g
   id="g36">
</g>
<g
   id="g38">
</g>
<g
   id="g40">
</g>
<g
   id="g42">
</g>
<g
   id="g44">
</g>
<g
   id="g46">
</g>
<g
   id="g48">
</g>
<g
   id="g50">
</g>
<g
   id="g52">
</g>
<g
   id="g54">
</g>
<g
   id="g56">
</g>
<g
   id="g58">
</g>
<g
   id="g60">
</g>
<text
   xml:space="preserve"
   style="font-style:normal;font-weight:normal;font-size:49.58348083px;line-height:1.25;font-family:sans-serif;letter-spacing:0px;word-spacing:0px;fill:#000000;fill-opacity:1;stroke:none;stroke-width:1.23958695"
   x="121.50193"
   y="378.79892"
   id="text3774"
   transform="scale(1.1335028,0.88222101)"><tspan
     sodipodi:role="line"
     id="tspan3772"
     x="121.50193"
     y="378.79892"
     style="font-size:238.00071716px;stroke-width:1.23958695">M</tspan></text>
</svg>