<?xml version="1.0" encoding="iso-8859-1"?>
<!-- Generator: Adobe Illustrator 19.0.0, SVG Export Plug-In . SVG Version: 6.00 Build 0)  -->
<svg version="1.1" id="Capa_1" xmlns="http://www.w3.org/2000/svg" xmlns:xlink="http://www.w3.org/1999/xlink" x="0px" y="0px"
	 viewBox="0 0 512 512" style="enable-background:new 0 0 512 512;" xml:space="preserve">
<g>
	<g>
		<path d="M332.794,0c-98.811,0-179.206,80.387-179.206,179.206s80.395,179.206,179.206,179.206S512,278.025,512,179.206
			S431.605,0,332.794,0z M332.794,341.345c-89.407,0-162.139-72.732-162.139-162.139S243.387,17.067,332.794,17.067
			s162.139,72.732,162.139,162.139S422.201,341.345,332.794,341.345z"/>
	</g>
</g>
<g>
	<g>
		<path d="M192.493,380.25c-1.604-8.312-7.202-15.258-14.977-18.586l-56.766-24.329c-9.634-4.13-20.643-2.005-28.05,5.402
			c-5.991,5.982-8.61,14.516-7.006,22.827c1.596,8.312,7.202,15.258,14.977,18.595l56.766,24.329
			c3.268,1.399,6.69,2.082,10.078,2.082c6.596,0,13.074-2.586,17.98-7.484C191.477,397.103,194.097,388.561,192.493,380.25z
			 M173.412,391.019c-2.441,2.441-6.076,3.14-9.25,1.784l-56.766-24.329c-2.611-1.118-4.412-3.354-4.949-6.136
			c-0.538-2.782,0.307-5.53,2.313-7.535c2.441-2.449,6.076-3.149,9.25-1.784l56.774,24.338c2.603,1.109,4.403,3.345,4.941,6.127
			C176.253,386.266,175.417,389.014,173.412,391.019z"/>
	</g>
</g>
<g>
	<g>
		<path d="M166.679,406.064c-1.596-8.312-7.202-15.258-14.977-18.595L94.937,363.14c-9.626-4.13-20.634-2.014-28.05,5.402
			c-5.982,5.982-8.602,14.516-6.998,22.827c1.596,8.312,7.202,15.258,14.977,18.595l56.766,24.329
			c3.268,1.399,6.69,2.082,10.078,2.082c6.605,0,13.073-2.586,17.972-7.484C165.663,422.909,168.283,414.375,166.679,406.064z
			 M147.606,416.825c-2.441,2.441-6.076,3.14-9.25,1.784L81.59,394.279c-2.603-1.118-4.403-3.354-4.941-6.136
			c-0.529-2.782,0.307-5.53,2.313-7.535c2.441-2.441,6.067-3.132,9.25-1.784l56.766,24.329c2.603,1.118,4.403,3.354,4.941,6.136
			C150.448,412.071,149.611,414.819,147.606,416.825z"/>
	</g>
</g>
<g>
	<g>
		<path d="M140.881,431.861c-1.596-8.312-7.202-15.258-14.977-18.595l-56.766-24.329c-9.626-4.122-20.643-2.005-28.05,5.402
			c-5.982,5.982-8.602,14.516-6.998,22.827c1.596,8.312,7.202,15.258,14.977,18.595l56.766,24.329
			c3.268,1.399,6.69,2.082,10.078,2.082c6.605,0,13.074-2.586,17.972-7.484C139.866,448.706,142.486,440.173,140.881,431.861z
			 M121.809,442.622c-2.441,2.441-6.076,3.14-9.25,1.784l-56.766-24.329c-2.603-1.118-4.412-3.354-4.941-6.136
			c-0.529-2.782,0.307-5.53,2.313-7.535c2.441-2.441,6.076-3.132,9.25-1.784l56.766,24.329c2.603,1.118,4.403,3.354,4.941,6.136
			C124.651,437.869,123.814,440.616,121.809,442.622z"/>
	</g>
</g>
<g>
	<g>
		<path d="M115.084,457.666c-1.596-8.312-7.202-15.258-14.976-18.595l-56.766-24.329c-9.634-4.13-20.643-2.005-28.05,5.402
			c-5.982,5.982-8.602,14.524-6.998,22.836c1.596,8.303,7.194,15.25,14.977,18.586l56.766,24.329
			c3.26,1.399,6.69,2.082,10.078,2.082c6.605,0,13.065-2.594,17.963-7.484C114.069,474.512,116.689,465.978,115.084,457.666z
			 M96.003,468.41c-2.441,2.449-6.076,3.149-9.25,1.784l-56.766-24.329c-2.603-1.109-4.403-3.345-4.941-6.127
			c-0.529-2.782,0.307-5.53,2.313-7.535c1.613-1.613,3.755-2.466,5.931-2.466c1.118,0,2.244,0.23,3.32,0.683l56.766,24.321
			c2.603,1.118,4.403,3.354,4.941,6.136C98.853,463.657,98.009,466.405,96.003,468.41z"/>
	</g>
</g>
<g>
	<g>
		<path d="M190.266,321.717c-13.995-14.004-36.771-14.004-50.766,0l-29.552,29.552l60.836,26.07c0.666,0.29,1.331,0.734,2.125,1.408
			l5.999,5.12l11.358-11.384C204.261,358.489,204.261,335.713,190.266,321.717z M178.216,360.434l-1.075,1.067l-37.292-15.983
			l11.734-11.717c7.339-7.339,19.286-7.347,26.633,0C185.555,341.14,185.555,353.096,178.216,360.434z"/>
	</g>
</g>
<g>
	<g>
		<path d="M29.996,445.89c-0.666-0.29-1.331-0.734-2.125-1.408l-5.999-5.12l-11.375,11.375c-13.995,13.995-13.995,36.771,0,50.766
			C17.494,508.501,26.685,512,35.884,512c9.191,0,18.39-3.499,25.388-10.496l29.56-29.543L29.996,445.89z M49.196,489.429
			c-7.347,7.33-19.286,7.339-26.633,0c-7.339-7.339-7.339-19.294,0-26.633l1.075-1.067l37.283,15.975L49.196,489.429z"/>
	</g>
</g>
<g>
	<g>
		
			<rect x="178.783" y="306.097" transform="matrix(0.7071 -0.7071 0.7071 0.7071 -164.6581 231.7415)" width="37.249" height="17.067"/>
	</g>
</g>
<g>
	<g>
		<path d="M332.794,42.668c-75.292,0-136.538,61.254-136.538,136.538s61.246,136.538,136.538,136.538
			c75.284,0,136.538-61.254,136.538-136.538S408.086,42.668,332.794,42.668z M332.794,298.677
			c-65.88,0-119.471-53.591-119.471-119.471S266.914,59.735,332.794,59.735c65.879,0,119.471,53.591,119.471,119.471
			S398.674,298.677,332.794,298.677z"/>
	</g>
</g>
<g>
	<g>
		<path d="M424.616,173.659l-26.864-31.421c-17.272-20.182-40.338-31.301-64.958-31.301s-47.686,11.119-64.958,31.301
			l-26.864,31.421c-2.731,3.192-2.731,7.902,0,11.094l26.864,31.421c17.272,20.182,40.338,31.301,64.958,31.301
			c24.619,0,47.686-11.119,64.958-31.301l26.864-31.421C427.346,181.561,427.346,176.851,424.616,173.659z M384.781,205.08
			c-13.969,16.333-32.436,25.328-51.987,25.328c-19.551,0-38.017-8.994-51.987-25.328l-22.119-25.874l22.119-25.874
			c13.969-16.333,32.436-25.328,51.987-25.328c19.55,0,38.017,8.994,51.978,25.328l22.128,25.874L384.781,205.08z"/>
	</g>
</g>
<g>
	<g>
		<path d="M332.794,145.072c-18.825,0-34.135,15.309-34.135,34.134c0,18.825,15.309,34.134,34.135,34.134
			c18.825,0,34.134-15.309,34.134-34.134C366.929,160.381,351.619,145.072,332.794,145.072z M332.794,196.273
			c-9.413,0-17.067-7.655-17.067-17.067s7.655-17.067,17.067-17.067c9.413,0,17.067,7.655,17.067,17.067
			S342.207,196.273,332.794,196.273z"/>
	</g>
</g>
<g>
</g>
<g>
</g>
<g>
</g>
<g>
</g>
<g>
</g>
<g>
</g>
<g>
</g>
<g>
</g>
<g>
</g>
<g>
</g>
<g>
</g>
<g>
</g>
<g>
</g>
<g>
</g>
<g>
</g>
</svg>
